<svg width="164" height="50" viewBox="0 0 335 120" fill="none" xmlns="http://www.w3.org/2000/svg">
    <g clip-path="url(#clip0_1_7)">
        <rect width="120" height="120" rx="10" fill="#2CB1BC" />
        <path
            d="M64.9375 71.0781V22.75H73.5156V71.0781C73.5156 75.5781 72.7344 79.375 71.1719 82.4688C69.6094 85.5625 67.4375 87.9219 64.6562 89.5469C61.9062 91.1406 58.7344 91.9375 55.1406 91.9375C51.6094 91.9375 48.4531 91.2188 45.6719 89.7812C42.8906 88.3438 40.7031 86.1562 39.1094 83.2188C37.5469 80.2812 36.7656 76.5781 36.7656 72.1094H45.3906C45.3906 74.9844 45.8125 77.3438 46.6562 79.1875C47.5312 81.0312 48.7031 82.3906 50.1719 83.2656C51.6406 84.1406 53.2969 84.5781 55.1406 84.5781C57.0156 84.5781 58.6875 84.0781 60.1562 83.0781C61.625 82.0469 62.7812 80.5312 63.625 78.5312C64.5 76.5 64.9375 74.0156 64.9375 71.0781Z"
            fill="white" />
        <path
            d="M188.396 63.0293V28.2344H196.668V63.0293C196.668 66.3333 196.064 69.1589 194.856 71.5059C193.649 73.8301 191.997 75.6074 189.9 76.8379C187.804 78.0684 185.423 78.6836 182.757 78.6836C180.068 78.6836 177.664 78.1481 175.545 77.0771C173.449 75.9834 171.797 74.3314 170.589 72.1211C169.381 69.9108 168.777 67.1081 168.777 63.7129H177.117C177.117 65.6497 177.356 67.2106 177.835 68.3955C178.313 69.5576 178.974 70.4121 179.817 70.959C180.683 71.4831 181.663 71.7451 182.757 71.7451C183.873 71.7451 184.853 71.4147 185.696 70.7539C186.539 70.0703 187.2 69.0791 187.679 67.7803C188.157 66.4814 188.396 64.8978 188.396 63.0293ZM205.348 61.0127V58.0391C205.348 55.168 205.701 52.6273 206.408 50.417C207.114 48.2067 208.117 46.361 209.416 44.8799C210.737 43.376 212.287 42.248 214.064 41.4961C215.841 40.7214 217.801 40.334 219.943 40.334C222.13 40.334 224.113 40.7214 225.89 41.4961C227.69 42.248 229.24 43.376 230.539 44.8799C231.86 46.361 232.874 48.2067 233.581 50.417C234.287 52.6273 234.64 55.168 234.64 58.0391V61.0127C234.64 63.8838 234.287 66.4245 233.581 68.6348C232.874 70.8451 231.86 72.7021 230.539 74.2061C229.24 75.6872 227.702 76.8037 225.924 77.5557C224.147 78.3076 222.176 78.6836 220.011 78.6836C217.869 78.6836 215.898 78.3076 214.098 77.5557C212.321 76.8037 210.771 75.6872 209.45 74.2061C208.128 72.7021 207.114 70.8451 206.408 68.6348C205.701 66.4245 205.348 63.8838 205.348 61.0127ZM213.312 58.0391V61.0127C213.312 62.8584 213.472 64.4762 213.791 65.8662C214.11 67.2334 214.565 68.3727 215.158 69.2842C215.75 70.1956 216.457 70.8792 217.277 71.335C218.097 71.7907 219.009 72.0186 220.011 72.0186C221.128 72.0186 222.096 71.7907 222.917 71.335C223.76 70.8792 224.455 70.1956 225.002 69.2842C225.571 68.3727 225.993 67.2334 226.266 65.8662C226.54 64.4762 226.676 62.8584 226.676 61.0127V58.0391C226.676 56.2161 226.517 54.6211 226.198 53.2539C225.879 51.8639 225.423 50.7132 224.831 49.8018C224.238 48.8675 223.52 48.1725 222.677 47.7168C221.857 47.2611 220.946 47.0332 219.943 47.0332C218.963 47.0332 218.063 47.2611 217.243 47.7168C216.445 48.1725 215.75 48.8675 215.158 49.8018C214.565 50.7132 214.11 51.8639 213.791 53.2539C213.472 54.6211 213.312 56.2161 213.312 58.0391ZM242.945 25.5H250.874V70.0703L250.259 78H242.945V25.5ZM270.801 58.0732V60.9785C270.801 63.9408 270.55 66.527 270.049 68.7373C269.548 70.9476 268.796 72.7933 267.793 74.2744C266.791 75.7555 265.537 76.8607 264.033 77.5898C262.529 78.319 260.775 78.6836 258.77 78.6836C256.901 78.6836 255.283 78.2734 253.916 77.4531C252.572 76.61 251.432 75.4365 250.498 73.9326C249.587 72.4059 248.858 70.5944 248.311 68.498C247.787 66.4017 247.399 64.0889 247.149 61.5596V57.4922C247.377 54.9629 247.752 52.6501 248.277 50.5537C248.823 48.4346 249.553 46.623 250.464 45.1191C251.376 43.5924 252.515 42.4189 253.882 41.5986C255.249 40.7555 256.867 40.334 258.736 40.334C260.764 40.334 262.529 40.6986 264.033 41.4277C265.537 42.1569 266.791 43.262 267.793 44.7432C268.796 46.2015 269.548 48.0472 270.049 50.2803C270.55 52.4906 270.801 55.0882 270.801 58.0732ZM262.837 60.9785V58.0732C262.837 56.2048 262.735 54.5869 262.529 53.2197C262.347 51.8525 262.017 50.7246 261.538 49.8359C261.083 48.9245 260.445 48.2409 259.624 47.7852C258.804 47.3294 257.767 47.1016 256.514 47.1016C255.42 47.1016 254.474 47.318 253.677 47.751C252.902 48.1839 252.241 48.7992 251.695 49.5967C251.148 50.3714 250.715 51.2715 250.396 52.2969C250.077 53.2995 249.86 54.3818 249.746 55.5439V63.5078C249.906 65.0345 250.225 66.4359 250.703 67.7119C251.205 68.988 251.922 70.002 252.857 70.7539C253.814 71.5059 255.056 71.8818 256.582 71.8818C257.79 71.8818 258.793 71.6768 259.59 71.2666C260.388 70.8564 261.026 70.207 261.504 69.3184C262.005 68.4297 262.347 67.3018 262.529 65.9346C262.735 64.5446 262.837 62.8926 262.837 60.9785ZM287.343 25.5V78H279.379V25.5H287.343ZM306.243 73.9326L314.172 41.0176H322.546L310.344 83.6055C310.071 84.5397 309.683 85.5423 309.182 86.6133C308.704 87.6842 308.077 88.6982 307.302 89.6553C306.55 90.6351 305.605 91.4212 304.465 92.0137C303.349 92.6289 302.016 92.9365 300.466 92.9365C299.828 92.9365 299.213 92.8796 298.621 92.7656C298.028 92.6517 297.458 92.515 296.912 92.3555V85.9297C297.094 85.9525 297.299 85.9753 297.527 85.998C297.755 86.0208 297.96 86.0322 298.142 86.0322C299.259 86.0322 300.181 85.8613 300.911 85.5195C301.64 85.2005 302.244 84.6764 302.722 83.9473C303.201 83.2409 303.622 82.2952 303.987 81.1104L306.243 73.9326ZM302.722 41.0176L309.216 68.5322L310.618 77.4531L305.149 78.8545L294.143 41.0176H302.722Z"
            fill="#2CB1BC" />
    </g>
    <defs>
        <clipPath id="clip0_1_7">
            <rect width="335" height="120" fill="white" />
        </clipPath>
    </defs>
</svg>